<svg width="50" height="50" viewBox="0 0 44 34" fill="none" xmlns="http://www.w3.org/2000/svg">
<path d="M12.4585 11.4167V17.6667M9.3335 14.5417H15.5835M18.0106 2.625L19.0564 3.3625C19.8685 3.93702 20.8388 4.24555 21.8335 4.24555C22.8283 4.24555 23.7985 3.93702 24.6106 3.3625L25.6564 2.62292C27.1488 1.56674 28.9322 0.999699 30.7606 1H32.0356C32.8793 1 33.7293 1.05208 34.5231 1.33333C39.4877 3.09583 42.9002 9.53125 42.6543 24.1313C42.6043 27.0729 41.9168 30.3229 39.2627 31.5917C38.3573 32.027 37.3652 32.252 36.3606 32.25C35.2314 32.2685 34.1221 31.9517 33.1731 31.3396C31.2668 30.0917 29.8731 28.0063 27.8523 26.9604C26.6356 26.3295 25.2852 26.0001 23.9148 26H19.7502C18.3793 26 17.0293 26.3292 15.8127 26.9583C13.7918 28.0083 12.396 30.0917 10.4939 31.3396C9.54487 31.9517 8.43558 32.2685 7.30642 32.25C6.30181 32.252 5.30974 32.027 4.40434 31.5917C1.75017 30.3229 1.06267 27.0708 1.01267 24.1313C0.764753 9.53125 4.17934 3.09583 9.14392 1.33333C9.93767 1.05208 10.7918 1 11.6314 1H12.9064C14.7356 1 16.5189 1.56667 18.0106 2.625Z" stroke="black" stroke-width="2" stroke-linecap="round"/>
<path d="M36.4168 14.021C36.4168 14.4354 36.2522 14.8328 35.9592 15.1258C35.6661 15.4189 35.2687 15.5835 34.8543 15.5835C34.4399 15.5835 34.0425 15.4189 33.7495 15.1258C33.4564 14.8328 33.2918 14.4354 33.2918 14.021C33.2918 13.6066 33.4564 13.2092 33.7495 12.9161C34.0425 12.6231 34.4399 12.4585 34.8543 12.4585C35.2687 12.4585 35.6661 12.6231 35.9592 12.9161C36.2522 13.2092 36.4168 13.6066 36.4168 14.021ZM30.1668 14.021C30.1668 14.4354 30.0022 14.8328 29.7092 15.1258C29.4161 15.4189 29.0187 15.5835 28.6043 15.5835C28.1899 15.5835 27.7925 15.4189 27.4995 15.1258C27.2064 14.8328 27.0418 14.4354 27.0418 14.021C27.0418 13.6066 27.2064 13.2092 27.4995 12.9161C27.7925 12.6231 28.1899 12.4585 28.6043 12.4585C29.0187 12.4585 29.4161 12.6231 29.7092 12.9161C30.0022 13.2092 30.1668 13.6066 30.1668 14.021ZM31.7293 9.3335C32.1437 9.3335 32.5411 9.49812 32.8342 9.79114C33.1272 10.0842 33.2918 10.4816 33.2918 10.896C33.2918 11.3104 33.1272 11.7078 32.8342 12.0008C32.5411 12.2939 32.1437 12.4585 31.7293 12.4585C31.3149 12.4585 30.9175 12.2939 30.6245 12.0008C30.3314 11.7078 30.1668 11.3104 30.1668 10.896C30.1668 10.4816 30.3314 10.0842 30.6245 9.79114C30.9175 9.49812 31.3149 9.3335 31.7293 9.3335ZM31.7293 15.5835C31.9345 15.5835 32.1377 15.6239 32.3273 15.7024C32.5168 15.781 32.6891 15.8961 32.8342 16.0411C32.9793 16.1862 33.0943 16.3585 33.1729 16.5481C33.2514 16.7376 33.2918 16.9408 33.2918 17.146C33.2918 17.3512 33.2514 17.5544 33.1729 17.7439C33.0943 17.9335 32.9793 18.1058 32.8342 18.2508C32.6891 18.3959 32.5168 18.511 32.3273 18.5896C32.1377 18.6681 31.9345 18.7085 31.7293 18.7085C31.3149 18.7085 30.9175 18.5439 30.6245 18.2508C30.3314 17.9578 30.1668 17.5604 30.1668 17.146C30.1668 16.7316 30.3314 16.3342 30.6245 16.0411C30.9175 15.7481 31.3149 15.5835 31.7293 15.5835Z" fill="black"/>
</svg>
